<?xml version="1.0" standalone="no"?>
<!DOCTYPE svg PUBLIC "-//W3C//DTD SVG 20010904//EN"
 "http://www.w3.org/TR/2001/REC-SVG-20010904/DTD/svg10.dtd">
<svg version="1.0" xmlns="http://www.w3.org/2000/svg"
 width="700.000000pt" height="700.000000pt" viewBox="0 0 700.000000 700.000000"
 preserveAspectRatio="xMidYMid meet">
<metadata>
Created by potrace 1.11, written by Peter Selinger 2001-2013
</metadata>
<g transform="translate(0.000000,700.000000) scale(0.100000,-0.100000)"
fill="#000000" stroke="none">
<path d="M4092 5629 c-107 -54 -133 -196 -55 -290 82 -97 239 -80 303 33 47
84 27 177 -53 241 -51 42 -132 48 -195 16z"/>
<path d="M3127 5507 c-100 -32 -155 -152 -113 -250 16 -38 76 -94 112 -103 14
-4 49 -4 79 -2 125 10 198 138 146 253 -22 50 -69 91 -119 105 -45 12 -56 12
-105 -3z"/>
<path d="M2103 3808 c3 -1396 4 -1414 25 -1524 60 -315 171 -536 366 -730 244
-245 554 -367 981 -389 487 -25 927 115 1204 384 191 185 310 412 373 708 l23
108 3 1428 3 1428 -138 -3 -138 -3 -5 -1430 c-6 -1407 -6 -1431 -27 -1520
-106 -458 -401 -742 -863 -830 -181 -35 -487 -30 -670 11 -399 90 -679 346
-794 724 -62 208 -59 121 -63 1653 l-4 1397 -140 0 -140 0 4 -1412z"/>
<path d="M2628 4543 c-17 -4 -18 -59 -18 -963 0 -633 4 -994 11 -1062 30 -275
121 -479 286 -639 187 -181 419 -257 748 -246 116 4 172 11 248 31 335 86 549
315 640 685 21 84 21 105 24 1144 l4 1057 -34 0 c-69 0 -133 -28 -199 -88
-163 -147 -273 -182 -393 -122 -73 36 -114 37 -183 5 -89 -41 -112 -37 -222
48 -77 59 -182 111 -257 128 -47 11 -74 9 -196 -9 -177 -28 -194 -28 -281 2
-74 25 -149 37 -178 29z"/>
</g>
</svg>
