<svg xmlns:dc="http://purl.org/dc/elements/1.1/" xmlns:cc="http://creativecommons.org/ns#" xmlns:rdf="http://www.w3.org/1999/02/22-rdf-syntax-ns#" xmlns:svg="http://www.w3.org/2000/svg" xmlns="http://www.w3.org/2000/svg" viewBox="0 0 2289 705" xml:space="preserve" id="el_Rh2L1G9Jn" version="1.1"><style>@-webkit-keyframes kf_el_fBLFexQxNqc_an_lYquraH1A{0%{opacity: 1;}62.50%{opacity: 1;}100%{opacity: 0;}}@keyframes kf_el_fBLFexQxNqc_an_lYquraH1A{0%{opacity: 1;}62.50%{opacity: 1;}100%{opacity: 0;}}@-webkit-keyframes kf_el_QSsFPnRVa4A_an_FaMEkyiSH{0%{opacity: 1;}62.50%{opacity: 1;}93.33%{opacity: 0;}100%{opacity: 0;}}@keyframes kf_el_QSsFPnRVa4A_an_FaMEkyiSH{0%{opacity: 1;}62.50%{opacity: 1;}93.33%{opacity: 0;}100%{opacity: 0;}}@-webkit-keyframes kf_el_fBLFexQxNqc_an_3lflnqwZq{0%{-webkit-transform: translate(-25.283000946044922px, -12.642000198364258px) translate(25.283000946044922px, 12.642000198364258px) translate(0px, -85px);transform: translate(-25.283000946044922px, -12.642000198364258px) translate(25.283000946044922px, 12.642000198364258px) translate(0px, -85px);}20%{-webkit-transform: translate(-25.283000946044922px, -12.642000198364258px) translate(25.283000946044922px, 12.642000198364258px) translate(0px, -85px);transform: translate(-25.283000946044922px, -12.642000198364258px) translate(25.283000946044922px, 12.642000198364258px) translate(0px, -85px);}100%{-webkit-transform: translate(-25.283000946044922px, -12.642000198364258px) translate(25.283000946044922px, 12.642000198364258px) translate(0px, 0px);transform: translate(-25.283000946044922px, -12.642000198364258px) translate(25.283000946044922px, 12.642000198364258px) translate(0px, 0px);}}@keyframes kf_el_fBLFexQxNqc_an_3lflnqwZq{0%{-webkit-transform: translate(-25.283000946044922px, -12.642000198364258px) translate(25.283000946044922px, 12.642000198364258px) translate(0px, -85px);transform: translate(-25.283000946044922px, -12.642000198364258px) translate(25.283000946044922px, 12.642000198364258px) translate(0px, -85px);}20%{-webkit-transform: translate(-25.283000946044922px, -12.642000198364258px) translate(25.283000946044922px, 12.642000198364258px) translate(0px, -85px);transform: translate(-25.283000946044922px, -12.642000198364258px) translate(25.283000946044922px, 12.642000198364258px) translate(0px, -85px);}100%{-webkit-transform: translate(-25.283000946044922px, -12.642000198364258px) translate(25.283000946044922px, 12.642000198364258px) translate(0px, 0px);transform: translate(-25.283000946044922px, -12.642000198364258px) translate(25.283000946044922px, 12.642000198364258px) translate(0px, 0px);}}@-webkit-keyframes kf_el_QSsFPnRVa4A_an_a1LzG4PT-{0%{-webkit-transform: translate(-24.77199935913086px, -12.38599967956543px) translate(24.77199935913086px, 12.38599967956543px) translate(0px, -65px);transform: translate(-24.77199935913086px, -12.38599967956543px) translate(24.77199935913086px, 12.38599967956543px) translate(0px, -65px);}57.50%{-webkit-transform: translate(-24.77199935913086px, -12.38599967956543px) translate(24.77199935913086px, 12.38599967956543px) translate(0px, 15px);transform: translate(-24.77199935913086px, -12.38599967956543px) translate(24.77199935913086px, 12.38599967956543px) translate(0px, 15px);}100%{-webkit-transform: translate(-24.77199935913086px, -12.38599967956543px) translate(24.77199935913086px, 12.38599967956543px) translate(0px, 42px);transform: translate(-24.77199935913086px, -12.38599967956543px) translate(24.77199935913086px, 12.38599967956543px) translate(0px, 42px);}}@keyframes kf_el_QSsFPnRVa4A_an_a1LzG4PT-{0%{-webkit-transform: translate(-24.77199935913086px, -12.38599967956543px) translate(24.77199935913086px, 12.38599967956543px) translate(0px, -65px);transform: translate(-24.77199935913086px, -12.38599967956543px) translate(24.77199935913086px, 12.38599967956543px) translate(0px, -65px);}57.50%{-webkit-transform: translate(-24.77199935913086px, -12.38599967956543px) translate(24.77199935913086px, 12.38599967956543px) translate(0px, 15px);transform: translate(-24.77199935913086px, -12.38599967956543px) translate(24.77199935913086px, 12.38599967956543px) translate(0px, 15px);}100%{-webkit-transform: translate(-24.77199935913086px, -12.38599967956543px) translate(24.77199935913086px, 12.38599967956543px) translate(0px, 42px);transform: translate(-24.77199935913086px, -12.38599967956543px) translate(24.77199935913086px, 12.38599967956543px) translate(0px, 42px);}}#el_Rh2L1G9Jn *{-webkit-animation-duration: 4s;animation-duration: 4s;-webkit-animation-iteration-count: infinite;animation-iteration-count: infinite;-webkit-animation-timing-function: cubic-bezier(0, 0, 1, 1);animation-timing-function: cubic-bezier(0, 0, 1, 1);}#el_C24FnZkOrd{-webkit-transform: matrix(1.3333333,0,0,-1.3333333,0,705.86267);transform: matrix(1.3333333,0,0,-1.3333333,0,705.86267);}#el_Mmc42uKyth{fill: none;fill-opacity: 1;fill-rule: nonzero;stroke: none;}#el_cJIJlCGhiu{-webkit-transform: translate(268.0134px, 206.7712px);transform: translate(268.0134px, 206.7712px);}#el_JO7PcVkPQk{fill: #152140;fill-opacity: 1;fill-rule: nonzero;stroke: none;}#el_VVy-1pHNpS{-webkit-transform: translate(341.5813px, 263.156px);transform: translate(341.5813px, 263.156px);}#el_tkPZ3j-4nP{fill: #152140;fill-opacity: 1;fill-rule: nonzero;stroke: none;}#el_UnDiXuGmu0{-webkit-transform: translate(730.1843px, 400.9836px);transform: translate(730.1843px, 400.9836px);}#el_UHPQm5C8Tp{fill: #152140;fill-opacity: 1;fill-rule: nonzero;stroke: none;}#el_m1gS4FSJcJ{-webkit-transform: translate(801.4255px, 139.2898px);transform: translate(801.4255px, 139.2898px);}#el_CToB-Yzq2q{fill: #152140;fill-opacity: 1;fill-rule: nonzero;stroke: none;}#el_KAdAmCYxDJ{-webkit-transform: translate(1007.8093px, 268.3464px);transform: translate(1007.8093px, 268.3464px);}#el_zdGTfNnN86{fill: #152140;fill-opacity: 1;fill-rule: nonzero;stroke: none;}#el_neKnbVoOqU{-webkit-transform: translate(1245.697px, 248.1199px);transform: translate(1245.697px, 248.1199px);}#el_Yd7B1p0dhRF{fill: #152140;fill-opacity: 1;fill-rule: nonzero;stroke: none;}#el_y_7s5vw63op{-webkit-transform: translate(1457.6296px, 269.0622px);transform: translate(1457.6296px, 269.0622px);}#el_SjIiGvUpm54{fill: #152140;fill-opacity: 1;fill-rule: nonzero;stroke: none;}#el_3IkPRwmogRP{-webkit-transform: translate(618.1296px, 408.5217px);transform: translate(618.1296px, 408.5217px);}#el_QSsFPnRVa4A{fill: #5d8be8;fill-opacity: 1;fill-rule: nonzero;stroke: none;-webkit-animation-fill-mode: backwards;animation-fill-mode: backwards;opacity: 1;-webkit-animation-name: kf_el_QSsFPnRVa4A_an_FaMEkyiSH;animation-name: kf_el_QSsFPnRVa4A_an_FaMEkyiSH;-webkit-animation-timing-function: cubic-bezier(0, 0, 1, 1);animation-timing-function: cubic-bezier(0, 0, 1, 1);}#el_Wzm4-29frwL{-webkit-transform: translate(683.4148px, 417.1775px);transform: translate(683.4148px, 417.1775px);}#el_fBLFexQxNqc{fill: #5d8be8;fill-opacity: 1;fill-rule: nonzero;stroke: none;-webkit-animation-fill-mode: backwards;animation-fill-mode: backwards;opacity: 1;-webkit-animation-name: kf_el_fBLFexQxNqc_an_lYquraH1A;animation-name: kf_el_fBLFexQxNqc_an_lYquraH1A;-webkit-animation-timing-function: cubic-bezier(0, 0, 1, 1);animation-timing-function: cubic-bezier(0, 0, 1, 1);}#el_eFW6KsTPTGb{-webkit-transform: translate(567.9695px, 236.1091px);transform: translate(567.9695px, 236.1091px);}#el_C2tT-let2cr{fill: #5d8be8;fill-opacity: 1;fill-rule: nonzero;stroke: none;}#el_QSsFPnRVa4A_an_a1LzG4PT-{-webkit-animation-fill-mode: backwards;animation-fill-mode: backwards;-webkit-transform: translate(-24.77199935913086px, -12.38599967956543px) translate(24.77199935913086px, 12.38599967956543px) translate(0px, -65px);transform: translate(-24.77199935913086px, -12.38599967956543px) translate(24.77199935913086px, 12.38599967956543px) translate(0px, -65px);-webkit-animation-name: kf_el_QSsFPnRVa4A_an_a1LzG4PT-;animation-name: kf_el_QSsFPnRVa4A_an_a1LzG4PT-;-webkit-animation-timing-function: cubic-bezier(0, 0, 1, 1);animation-timing-function: cubic-bezier(0, 0, 1, 1);}#el_fBLFexQxNqc_an_3lflnqwZq{-webkit-animation-fill-mode: backwards;animation-fill-mode: backwards;-webkit-transform: translate(-25.283000946044922px, -12.642000198364258px) translate(25.283000946044922px, 12.642000198364258px) translate(0px, -85px);transform: translate(-25.283000946044922px, -12.642000198364258px) translate(25.283000946044922px, 12.642000198364258px) translate(0px, -85px);-webkit-animation-name: kf_el_fBLFexQxNqc_an_3lflnqwZq;animation-name: kf_el_fBLFexQxNqc_an_3lflnqwZq;-webkit-animation-timing-function: cubic-bezier(0.42, 0, 0.58, 1);animation-timing-function: cubic-bezier(0.42, 0, 0.58, 1);}</style><metadata id="metadata8"><rdf:rdf><cc:work rdf:about=""><dc:format>image/svg+xml</dc:format><dc:type rdf:resource="http://purl.org/dc/dcmitype/StillImage"/></cc:work></rdf:rdf></metadata><defs id="defs6"><clipPath id="clipPath20" clipPathUnits="userSpaceOnUse"><path id="path18" d="M 0,529.397 H 1717.455 V 0 H 0 Z"/></clipPath></defs><g id="el_C24FnZkOrd"><path id="el_Mmc42uKyth" d="M 0,0 H 1717.455 V 529.397 H 0 Z"/><g id="el_aGzBuWE6-j"><g clip-path="url(#clipPath20)" id="el_twja1p3LW9"><g id="el_cJIJlCGhiu"><path id="el_JO7PcVkPQk" d="m 0,0 c 0,-21.837 -8.027,-39.141 -24.075,-51.909 -16.051,-12.772 -37.383,-19.153 -63.992,-19.153 -31.981,0 -56.504,3.521 -73.568,10.561 v 18.258 c 18.854,-7.996 42.898,-11.993 72.136,-11.993 21.48,0 38.513,4.923 51.104,14.767 12.589,9.845 18.884,22.76 18.884,38.753 0,9.904 -2.089,18.106 -6.265,24.612 -4.179,6.503 -10.98,12.441 -20.405,17.811 -9.428,5.369 -23.27,11.156 -41.527,17.362 -26.733,9.189 -45.198,19.123 -55.4,29.804 -10.203,10.677 -15.305,24.907 -15.305,42.69 0,19.57 7.667,35.531 23.001,47.882 15.332,12.351 35.054,18.526 59.159,18.526 24.582,0 47.672,-4.654 69.272,-13.961 l -6.623,-15.752 c -21.72,9.066 -42.484,13.604 -62.291,13.604 -19.332,0 -34.726,-4.475 -46.181,-13.425 -11.456,-8.95 -17.184,-21.122 -17.184,-36.516 0,-9.666 1.76,-17.604 5.281,-23.806 3.518,-6.206 9.277,-11.787 17.272,-16.737 7.994,-4.952 21.718,-10.892 41.17,-17.81 20.406,-7.044 35.738,-13.872 46.002,-20.495 C -19.272,46.45 -11.786,38.933 -7.07,30.52 -2.357,22.106 0,11.931 0,0"/></g><g id="el_VVy-1pHNpS"><path id="el_tkPZ3j-4nP" d="m 0,0 h 35.979 c 29.472,0 50.773,4.859 63.901,14.588 13.126,9.725 19.69,25.507 19.69,47.345 0,20.164 -6.206,35.11 -18.615,44.838 -12.413,9.726 -31.624,14.589 -57.638,14.589 H 0 Z m 139.26,62.649 c 0,-25.301 -8.592,-44.69 -25.776,-58.174 C 96.301,-9.013 71.957,-15.752 40.454,-15.752 H 0 v -108.114 h -18.258 v 261.694 h 64.081 c 62.291,0 93.437,-25.06 93.437,-75.179"/></g><g id="el_UnDiXuGmu0"><path id="el_UHPQm5C8Tp" d="m 0,0 v -169.332 c 0,-30.071 -8.711,-53.583 -26.133,-70.524 -17.425,-16.946 -41.707,-25.418 -72.852,-25.418 -30.313,0 -53.968,8.502 -70.973,25.507 -17.004,17.005 -25.507,40.722 -25.507,71.151 V 0 h 18.437 v -169.332 c 0,-25.179 6.981,-44.779 20.943,-58.8 13.961,-14.025 33.71,-21.033 59.248,-21.033 24.94,0 44.271,6.892 57.995,20.675 13.721,13.782 20.585,32.905 20.585,57.368 l 0,171.122 z"/></g><g id="el_m1gS4FSJcJ"><path id="el_CToB-Yzq2q" d="M 0,0 V 261.694 H 18.258 V 17.184 H 143.019 V 0 Z"/></g><g id="el_KAdAmCYxDJ"><path id="el_zdGTfNnN86" d="m 0,0 v -112.947 h 61.575 c 48.447,0 72.673,19.689 72.673,59.069 C 134.248,-17.962 108.711,0 57.637,0 Z m 0,16.11 h 57.637 c 24.582,0 42.451,4.086 53.61,12.261 11.156,8.171 16.736,20.97 16.736,38.395 0,17.422 -6.295,30.072 -18.884,37.948 -12.591,7.875 -31.355,11.813 -56.294,11.813 H 0 Z m -18.258,116.527 h 71.779 c 32.337,0 56.084,-5.49 71.24,-16.468 15.154,-10.981 22.733,-27.565 22.733,-49.761 0,-15.156 -4.626,-27.775 -13.873,-37.858 C 124.373,18.464 110.858,11.993 93.079,9.129 V 8.055 c 20.882,-3.106 36.246,-9.697 46.092,-19.78 9.845,-10.086 14.766,-24.137 14.766,-42.153 0,-24.105 -7.995,-42.664 -23.985,-55.668 -15.991,-13.008 -38.663,-19.511 -68.018,-19.511 h -80.192 z"/></g><g id="el_neKnbVoOqU"><path id="el_Yd7B1p0dhRF" d="m 0,0 h 93.615 l -35.62,94.332 c -2.984,7.397 -6.564,17.658 -10.74,30.787 C 44.033,113.664 40.513,103.282 36.694,93.974 Z M 99.701,-16.468 H -6.623 L -43.139,-108.83 H -63.365 L 41.885,153.938 H 53.521 L 156.622,-108.83 h -20.584 z"/></g><g id="el_y_7s5vw63op"><path id="el_SjIiGvUpm54" d="m 0,0 h 49.94 c 22.076,0 39.201,4.923 51.373,14.768 12.171,9.844 18.257,24.37 18.257,43.586 0,19.927 -5.967,34.426 -17.899,43.496 -11.935,9.066 -31.386,13.604 -58.354,13.604 H 0 Z m 0,-15.751 v -114.021 h -18.258 v 261.693 h 62.291 c 32.458,0 56.444,-5.996 71.957,-17.989 15.512,-11.993 23.27,-30.044 23.27,-54.146 0,-17.542 -4.625,-32.34 -13.872,-44.392 -9.249,-12.055 -23.3,-20.705 -42.155,-25.955 l 71.063,-119.211 H 132.458 L 64.977,-15.751 Z"/></g><g id="el_3IkPRwmogRP"><g id="el_QSsFPnRVa4A_an_a1LzG4PT-" data-animator-group="true" data-animator-type="0"><path id="el_QSsFPnRVa4A" d="m 0,0 c 0,-6.84 -5.545,-12.386 -12.386,-12.386 -6.841,0 -12.386,5.546 -12.386,12.386 0,6.841 5.545,12.386 12.386,12.386 C -5.545,12.386 0,6.841 0,0"/></g></g><g id="el_Wzm4-29frwL"><g id="el_fBLFexQxNqc_an_3lflnqwZq" data-animator-group="true" data-animator-type="0"><path id="el_fBLFexQxNqc" d="m 0,0 c 0,-6.982 -5.66,-12.642 -12.642,-12.642 -6.982,0 -12.641,5.66 -12.641,12.642 0,6.981 5.659,12.642 12.641,12.642 C -5.66,12.642 0,6.981 0,0"/></g></g><g id="el_eFW6KsTPTGb"><path id="el_C2tT-let2cr" d="m 0,0 c 0,-22.121 5.677,-39.341 17.03,-51.659 11.354,-12.321 27.413,-18.478 48.18,-18.478 20.281,0 36.001,6.055 47.161,18.163 11.158,12.11 16.739,28.909 16.739,50.402 v 123.288 c -0.146,0.005 -0.278,0.039 -0.427,0.036 -16.096,-0.314 -11.808,-6.169 -26.396,-13.835 -14.589,-7.666 -14.593,7.232 -27.04,0 -10.758,-6.251 -10.515,7.546 -32.834,12.263 -4.481,0.947 -21.365,-4.285 -26.625,-1.974 C 8.767,121.29 3.687,121.857 0,120.966 Z"/></g></g></g></g></svg>